<svg xmlns="http://www.w3.org/2000/svg" shape-rendering="geometricPrecision" text-rendering="geometricPrecision" image-rendering="optimizeQuality" fill-rule="evenodd" clip-rule="evenodd" viewBox="0 0 22000 6000" preserveAspectRatio="xMidYMid meet">

 <g id="Camada_x0020_1">
  <metadata id="CorelCorpID_0Corel-Layer"/>
  <path fill="#FEFEFE" fill-rule="nonzero" d="M1871.47 828.44c0,400.82 -324.95,725.73 -725.77,725.73 -400.82,0 -725.73,-324.91 -725.73,-725.73 0,-400.82 324.91,-725.77 725.73,-725.77 400.82,0 725.77,324.95 725.77,725.77z"/>
  <path fill="#FEFEFE" fill-rule="nonzero" d="M496.36 1820.95c0,-105.15 85.22,-190.37 190.34,-190.37l918.01 0c105.11,0 190.37,85.22 190.37,190.37l0 917.98c0,105.11 -85.26,190.33 -190.37,190.33l-918.01 0c-105.12,0 -190.34,-85.22 -190.34,-190.33l0 -917.98z"/>
  <path fill="#FEFEFE" fill-rule="nonzero" d="M496.36 4800.32c0,-105.11 85.22,-190.33 190.37,-190.33l917.98 0c105.12,0 190.37,85.22 190.37,190.33l0 918.02c0,105.11 -85.25,190.33 -190.37,190.33l-917.98 0c-105.15,0 -190.37,-85.22 -190.37,-190.33l0 -918.02z"/>
  <path fill="#FEFEFE" fill-rule="nonzero" d="M496.36 3310.63c0,-105.12 85.22,-190.34 190.37,-190.34l917.98 0c105.12,0 190.37,85.22 190.37,190.34l0 918.01c0,105.11 -85.25,190.33 -190.37,190.33l-917.98 0c-105.15,0 -190.37,-85.22 -190.37,-190.33l0 -918.01z"/>
  <path fill="#FEFEFE" fill-rule="nonzero" d="M1986.05 1846.4c0,-105.15 85.25,-190.37 190.37,-190.37l918.01 0c105.11,0 190.34,85.22 190.34,190.37l0 917.98c0,105.15 -85.23,190.37 -190.34,190.37l-918.01 0c-105.12,0 -190.37,-85.22 -190.37,-190.37l0 -917.98z"/>
  <path fill="#FEFEFE" fill-rule="nonzero" d="M1986.06 369.45c0,-105.15 85.22,-190.37 190.34,-190.37l918.01 0c105.11,0 190.34,85.22 190.34,190.37l0 917.98c0,105.11 -85.23,190.33 -190.34,190.33l-918.01 0c-105.12,0 -190.34,-85.22 -190.34,-190.33l0 -917.98z"/>
  <path fill="#FEFEFE" fill-rule="nonzero" d="M3475.74 369.45c0,-105.15 85.22,-190.37 190.37,-190.37l917.97 0c105.16,0 190.38,85.22 190.38,190.37l0 917.98c0,105.11 -85.22,190.33 -190.38,190.33l-917.97 0c-105.15,0 -190.37,-85.22 -190.37,-190.33l0 -917.98z"/>
  <path fill="#FEFEFE" fill-rule="nonzero" d="M1986.06 4800.32c0,-105.11 85.22,-190.33 190.34,-190.33l918.01 0c105.11,0 190.34,85.22 190.34,190.33l0 918.02c0,105.11 -85.23,190.33 -190.34,190.33l-918.01 0c-105.12,0 -190.34,-85.22 -190.34,-190.33l0 -918.02z"/>
  <path fill="#FEFEFE" fill-rule="nonzero" d="M1986.06 3310.63c0,-105.12 85.22,-190.34 190.34,-190.34l918.01 0c105.11,0 190.34,85.22 190.34,190.34l0 918.01c0,105.11 -85.23,190.33 -190.34,190.33l-918.01 0c-105.12,0 -190.34,-85.22 -190.34,-190.33l0 -918.01z"/>
  <path fill="#FEFEFE" fill-rule="nonzero" d="M3475.74 3310.63c0,-105.12 85.22,-190.34 190.37,-190.34l917.97 0c105.16,0 190.38,85.22 190.38,190.34l0 918.01c0,105.11 -85.22,190.33 -190.38,190.33l-917.97 0c-105.15,0 -190.37,-85.22 -190.37,-190.33l0 -918.01z"/>
  <polygon fill="#FEFEFE" fill-rule="nonzero" points="6685.7,1355.24 7114,1355.24 7114,3433.97 6685.7,3433.97 "/>
  <polygon fill="#FEFEFE" fill-rule="nonzero" points="7469.24,1355.24 8714.22,1355.24 8691.38,1709.32 7897.58,1709.32 7897.58,2229 8637.13,2229 8614.28,2580.21 7897.58,2580.21 7897.58,3433.97 7469.24,3433.97 "/>
  <path fill="#FEFEFE" fill-rule="nonzero" d="M9520.03 3468.26c-118.03,0 -231.31,-12.38 -339.81,-37.13 -106.59,-26.66 -192.24,-52.34 -256.99,-77.09l71.4 -334.09c70.44,20.94 151.34,42.85 242.72,65.69 91.37,20.94 180.84,31.41 268.4,31.41 72.34,0 135.15,-10.47 188.46,-31.41 53.28,-20.97 94.22,-50.47 122.78,-88.53 30.44,-38.06 45.69,-82.81 45.69,-134.22 0,-57.09 -19.03,-104.68 -57.13,-142.78 -36.15,-38.06 -84.72,-72.3 -145.62,-102.77 -60.9,-30.47 -126.59,-59.97 -197.03,-88.54 -60.9,-28.52 -121.8,-59.96 -182.74,-94.21 -60.91,-34.28 -117.06,-74.25 -168.47,-119.94 -49.5,-45.68 -89.46,-99.93 -119.93,-162.74 -30.44,-64.72 -45.69,-139.94 -45.69,-225.59 0,-129.44 32.38,-238.9 97.09,-328.37 66.63,-89.47 156.09,-158 268.4,-205.59 114.22,-47.59 243.69,-71.37 388.34,-71.37 99,0 193.21,10.47 282.75,31.4 89.47,19.03 166.56,42.81 231.27,71.38l-62.81 334.08c-49.5,-19.03 -115.18,-38.06 -197.02,-57.09 -80.01,-19.06 -159.94,-28.56 -239.91,-28.56 -104.68,0 -186.56,20.94 -245.56,62.81 -58.99,41.87 -88.53,98.03 -88.53,168.46 0,53.32 18.1,99 54.25,137.06 38.1,36.19 86.62,69.51 145.66,99.94 58.99,28.56 122.78,58.06 191.3,88.53 60.91,26.66 121.81,57.09 182.79,91.37 62.81,32.38 119.93,71.37 171.34,117.06 53.28,45.69 95.15,100.91 125.62,165.62 30.47,64.72 45.69,140.88 45.69,228.44 0,127.56 -31.41,239.87 -94.22,336.93 -60.94,95.18 -149.43,169.43 -265.63,222.74 -116.09,51.38 -255.05,77.1 -416.86,77.1z"/>
  <path fill="#FEFEFE" fill-rule="nonzero" d="M11375.23 3468.26c-173.22,0 -320.74,-32.38 -442.59,-97.1 -121.84,-64.71 -214.15,-161.81 -276.99,-291.24 -62.81,-129.47 -94.22,-290.31 -94.22,-482.59l0 -1242.09 425.46 0 0 1267.82c0,159.9 32.38,283.61 97.09,371.17 66.63,85.69 163.72,128.5 291.25,128.5 127.52,0 223.68,-42.81 288.4,-128.5 64.71,-87.56 97.09,-211.27 97.09,-371.17l0 -1267.82 425.46 0 0 1242.09c0,192.28 -31.44,353.12 -94.25,482.59 -60.9,129.43 -152.28,226.53 -274.12,291.24 -119.94,64.72 -267.46,97.1 -442.58,97.1z"/>
  <polygon fill="#FEFEFE" fill-rule="nonzero" points="12524.8,1355.24 12953.14,1355.24 12953.14,3079.92 13795.46,3079.92 13775.5,3433.97 12524.8,3433.97 "/>
  <path fill="#FEFEFE" fill-rule="nonzero" d="M7108.5 5260.68c-94.43,0 -176.67,-14.71 -246.71,-44.18 -69.03,-30.43 -125.91,-71.55 -170.59,-123.35 -43.63,-52.77 -76.12,-112.67 -97.45,-179.69 -21.33,-68.02 -31.98,-139.61 -31.98,-214.72 0,-117.78 22.84,-220.31 68.53,-307.62 45.69,-88.35 110.15,-156.37 193.4,-204.07 84.28,-47.71 182.74,-71.59 295.45,-71.59 56.84,0 109.65,5.07 158.39,15.25 49.75,9.14 88.82,20.29 117.24,33.49l-28.93 182.75c-31.47,-12.2 -67.52,-22.34 -108.13,-30.47 -39.57,-8.1 -81.19,-12.16 -124.87,-12.16 -64.97,0 -122.85,14.71 -173.61,44.14 -49.75,28.45 -88.31,71.59 -115.72,129.47 -27.41,56.84 -41.12,127.42 -41.12,211.67 0,79.18 12.66,147.2 38.06,204.08 26.4,56.83 64.46,101.01 114.22,132.49 49.75,30.43 110.15,45.68 181.23,45.68 39.57,0 79.68,-3.56 120.3,-10.68 41.62,-8.09 78.17,-18.28 109.64,-30.43l21.34 181.2c-29.47,13.2 -69.04,24.39 -118.79,33.52 -49.75,10.15 -103.06,15.22 -159.9,15.22z"/>
  <path fill="#FEFEFE" fill-rule="nonzero" d="M7730.38 5259.17c-48.71,0 -91.38,-10.18 -127.93,-30.47 -36.55,-20.29 -65.47,-48.24 -86.8,-83.75 -20.29,-35.54 -30.43,-75.65 -30.43,-120.33 0,-40.61 7.08,-75.11 21.29,-103.53 14.21,-29.46 34.03,-52.81 59.39,-70.08 26.41,-18.27 57.89,-31.48 94.44,-39.57 36.54,-8.13 76.65,-12.19 120.29,-12.19l169.04 0 0 -71.59c0,-18.28 -2.01,-34.5 -6.08,-48.71 -4.06,-14.21 -11.15,-26.91 -21.33,-38.1 -9.14,-12.16 -22.84,-20.79 -41.12,-25.86 -17.23,-6.12 -40.07,-9.14 -68.53,-9.14 -43.63,0 -86.8,5.07 -129.43,15.22 -41.62,9.14 -78.17,19.78 -109.65,31.98l-36.55 -156.85c25.4,-11.18 55.33,-21.33 89.86,-30.47 34.5,-9.13 71.05,-16.76 109.65,-22.84 39.57,-6.08 78.17,-9.14 115.73,-9.14 63.96,0 116.77,6.59 158.39,19.79 42.63,12.19 75.62,30.97 98.96,56.37 24.39,24.35 41.12,54.32 50.26,89.83 10.18,35.54 15.25,75.65 15.25,120.33l0 335.02c0,31.48 1.01,64.46 3.02,99 2.05,33.49 3.57,62.92 4.57,88.31l-162.92 0 -45.69 -100.51 -4.57 0c-29.46,36.55 -65,65.48 -106.62,86.81 -40.62,20.29 -84.76,30.47 -132.49,30.47zm79.21 -150.77c28.42,0 56.84,-7.62 85.26,-22.84 29.46,-16.26 49.25,-37.05 59.39,-62.45l0 -102.02 -137.06 0c-13.2,0 -26.91,1.01 -41.12,3.02 -13.2,2.05 -25.86,6.12 -38.06,12.2 -11.15,6.07 -20.29,15.21 -27.41,27.41 -7.12,12.19 -10.65,28.42 -10.65,48.74 0,30.43 10.15,54.32 30.44,71.55 20.32,16.26 46.73,24.39 79.21,24.39zm-220.84 -746.23l158.39 -217.75 217.78 0 161.42 217.75 -173.61 0 -95.94 -147.71 -94.43 147.71 -173.61 0z"/>
  <path fill="#FEFEFE" fill-rule="nonzero" d="M8353.26 4697.22c0,-45.68 -0.54,-87.84 -1.55,-126.41 0,-38.56 -1,-78.67 -3.02,-120.29l191.88 -6.12 15.22 100.51 6.08 0c18.28,-16.22 39.1,-32.99 62.45,-50.25 24.36,-17.23 51.77,-31.48 82.24,-42.63 31.47,-12.2 65.97,-18.28 103.56,-18.28 47.71,0 90.33,10.15 127.93,30.47 37.55,20.29 64.97,49.75 82.23,88.32l4.57 0c22.31,-19.28 46.7,-38.06 73.1,-56.34 26.37,-18.27 55.33,-33.02 86.8,-44.17 31.45,-12.2 65.98,-18.28 103.54,-18.28 45.68,0 84.28,8.13 115.76,24.36 32.48,15.25 58.85,37.59 79.18,67.02 20.29,28.42 35.54,62.95 45.68,103.56 10.15,39.58 15.22,83.25 15.22,130.95l0 482.76 -223.86 0 0 -447.72c0,-38.57 -4.07,-71.09 -12.16,-97.46 -8.13,-27.41 -20.83,-48.24 -38.1,-62.45 -16.22,-14.21 -38.06,-21.33 -65.47,-21.33 -23.35,0 -45.18,5.07 -65.47,15.25 -20.33,9.14 -38.6,20.8 -54.83,35.01 -15.25,13.2 -28.45,26.9 -39.6,41.11l12.19 -57.84c1.01,28.42 1.51,52.77 1.51,73.1 1.01,20.29 1.51,44.64 1.51,73.1l0 449.23 -223.86 0 0 -444.67c0,-33.52 -3.02,-63.96 -9.14,-91.37 -6.08,-28.45 -16.73,-50.76 -31.98,-67.02 -15.21,-17.26 -38.06,-25.9 -68.53,-25.9 -22.34,0 -43.13,4.07 -62.41,12.2 -18.28,8.13 -35.04,18.27 -50.26,30.47 -14.24,11.15 -26.4,22.34 -36.55,33.49l0 552.8 -223.86 0 0 -545.18z"/>
  <path fill="#FEFEFE" fill-rule="nonzero" d="M9721.45 4718.52c0,-44.64 -0.51,-90.33 -1.52,-137.06 0,-47.7 -1,-91.37 -3.05,-130.94l193.43 -6.12 16.72 108.14 4.57 0c29.43,-32.49 64.47,-60.4 105.12,-83.75 41.58,-23.35 88.31,-35.04 140.08,-35.04 63.96,0 118.78,16.26 164.47,48.75 45.69,32.48 80.73,78.67 105.08,138.57 24.39,58.89 36.55,127.92 36.55,207.1 0,87.31 -14.75,163.46 -44.14,228.43 -29.43,63.96 -69.03,113.71 -118.78,149.26 -49.79,35.54 -105.59,53.31 -167.53,53.31 -29.43,0 -56.84,-4.07 -82.24,-12.2 -24.35,-8.13 -46.73,-19.28 -67.02,-33.49 -19.32,-15.25 -36.55,-31.98 -51.77,-50.25l-1.51 0 0 420.31 -228.46 0 0 -865.02zm368.55 363.98c38.56,0 69.03,-11.15 91.37,-33.49 23.35,-23.35 40.07,-53.31 50.25,-89.86 11.16,-37.56 16.77,-77.17 16.77,-118.79 0,-53.81 -7.13,-97.45 -21.33,-130.98 -13.21,-33.49 -31.48,-57.84 -54.83,-73.1 -22.34,-15.21 -48.24,-22.84 -77.67,-22.84 -20.25,0 -39.57,4.07 -57.84,12.2 -18.28,7.12 -35.04,16.76 -50.26,28.92 -15.25,12.19 -27.41,25.4 -36.55,39.61l0 271.06c3.03,19.32 10.65,38.09 22.85,56.37 13.2,18.27 29.96,32.99 50.25,44.14 20.26,11.19 42.63,16.76 66.99,16.76z"/>
  <path fill="#FEFEFE" fill-rule="nonzero" d="M10886.2 5259.17c-65.98,0 -118.78,-14.75 -158.39,-44.18 -38.57,-29.42 -66.52,-69.53 -83.75,-120.29 -16.29,-51.81 -24.39,-110.69 -24.39,-176.67l0 -467.51 226.92 0 0 466c0,51.77 9.61,91.88 28.93,120.3 20.29,28.41 53.31,42.62 99,42.62 22.37,0 42.62,-3.52 60.9,-10.64 18.27,-8.13 35.04,-17.77 50.25,-28.93 15.26,-12.19 28.46,-24.39 39.61,-36.55l0 -552.8 226.92 0 0 539.1c0,48.71 0,93.89 0,135.51 1.05,41.62 2.56,80.73 4.57,117.27l-159.9 0 -47.23 -105.07 -6.08 0c-17.24,19.28 -39.11,38.56 -65.48,57.88 -25.43,18.27 -54.35,33.49 -86.8,45.68 -32.48,12.16 -67.49,18.28 -105.08,18.28z"/>
  <path fill="#FEFEFE" fill-rule="nonzero" d="M11750.72 5259.17c-45.69,0 -92.42,-5.07 -140.12,-15.25 -47.66,-9.14 -87.85,-20.29 -120.29,-33.5l27.41 -153.82c18.27,6.12 40.07,12.7 65.47,19.82 26.37,6.08 54.36,11.15 83.75,15.22 29.42,4.06 57.88,6.08 85.29,6.08 39.61,0 68.53,-6.58 86.8,-19.79 19.32,-14.21 28.93,-32.48 28.93,-54.82 0,-18.28 -7.13,-33.49 -21.3,-45.69 -14.17,-12.19 -32.45,-23.34 -54.82,-33.49 -22.38,-10.18 -46.73,-20.32 -73.1,-30.47 -32.45,-12.19 -65.51,-27.41 -99,-45.68 -32.45,-19.29 -59.86,-44.18 -82.24,-74.61 -22.37,-30.47 -33.49,-70.08 -33.49,-118.79 0,-50.76 13.24,-93.93 39.57,-129.47 27.41,-35.5 65.04,-62.92 112.71,-82.23 47.7,-19.29 102.02,-28.93 162.96,-28.93 43.67,0 85.76,4.57 126.37,13.71 40.65,8.13 75.12,18.27 103.57,30.47l-25.9 152.28c-15.22,-5.08 -34.53,-10.65 -57.84,-16.77 -22.38,-6.08 -45.69,-10.65 -70.08,-13.7 -24.35,-4.07 -47.67,-6.08 -70.04,-6.08 -30.47,0 -55.29,6.08 -74.61,18.27 -18.28,12.2 -27.41,28.92 -27.41,50.26 0,16.26 6.08,30.47 18.27,42.62 13.24,11.19 30.44,21.34 51.77,30.47 21.33,9.14 44.17,18.78 68.53,28.93 33.49,12.19 67.48,27.91 102.02,47.23 35.5,18.28 65.04,43.13 88.35,74.61 23.31,31.48 35,72.09 35,121.84 0,50.76 -14.17,95.44 -42.63,134 -28.45,37.56 -68.06,66.52 -118.78,86.81 -49.79,20.29 -108.14,30.47 -175.12,30.47z"/>
  <path fill="#FEFEFE" fill-rule="nonzero" d="M13076.56 5260.68c-94.39,0 -176.63,-14.71 -246.7,-44.18 -69,-30.43 -125.91,-71.55 -170.55,-123.35 -43.68,-52.77 -76.16,-112.67 -97.46,-179.69 -21.33,-68.02 -31.98,-139.61 -31.98,-214.72 0,-117.78 22.85,-220.31 68.53,-307.62 45.69,-88.35 110.12,-156.37 193.4,-204.07 84.25,-47.71 182.74,-71.59 295.45,-71.59 56.8,0 109.65,5.07 158.35,15.25 49.79,9.14 88.82,20.29 117.28,33.49l-28.92 182.75c-31.52,-12.2 -67.49,-22.34 -108.14,-30.47 -39.61,-8.1 -81.19,-12.16 -124.87,-12.16 -65,0 -122.88,14.71 -173.6,44.14 -49.79,28.45 -88.36,71.59 -115.77,129.47 -27.41,56.84 -41.12,127.42 -41.12,211.67 0,79.18 12.67,147.2 38.1,204.08 26.37,56.83 64.43,101.01 114.22,132.49 49.75,30.43 110.11,45.68 181.2,45.68 39.6,0 79.68,-3.56 120.33,-10.68 41.58,-8.09 78.13,-18.28 109.65,-30.43l21.29 181.2c-29.39,13.2 -69,24.39 -118.78,33.52 -49.75,10.15 -103.07,15.22 -159.91,15.22z"/>
  <path fill="#FEFEFE" fill-rule="nonzero" d="M13495.94 4103.3l228.44 -6.12 0 446.22 1.51 0c23.31,-22.34 47.2,-41.62 71.59,-57.88 25.39,-16.22 52.23,-28.92 80.68,-38.06 28.5,-9.14 58.35,-13.71 89.87,-13.71 45.68,0 85.29,8.13 118.78,24.36 33.49,15.25 60.91,38.09 82.24,68.53 21.33,29.46 37.01,65 47.2,106.62 11.15,41.62 16.76,88.32 16.76,140.08l0 469.06 -228.43 0 0 -459.92c0,-28.42 -3.06,-52.77 -9.14,-73.1 -5.04,-21.29 -13.24,-39.06 -24.36,-53.27 -10.18,-14.21 -23.31,-24.9 -39.6,-31.98 -15.22,-7.13 -33.03,-10.69 -53.32,-10.69 -22.33,0 -43.09,4.07 -62.41,12.2 -19.32,8.13 -36.55,17.77 -51.8,28.92 -15.22,11.19 -28.46,22.84 -39.57,35.04l0 552.8 -228.44 0 0 -1139.1z"/>
  <path fill="#FEFEFE" fill-rule="nonzero" d="M14611.63 5259.17c-48.71,0 -91.37,-10.18 -127.92,-30.47 -36.55,-20.29 -65.47,-48.24 -86.81,-83.75 -20.25,-35.54 -30.43,-75.65 -30.43,-120.33 0,-40.61 7.12,-75.11 21.3,-103.53 14.21,-29.46 33.99,-52.81 59.39,-70.08 26.37,-18.27 57.88,-31.48 94.43,-39.57 36.55,-8.13 76.62,-12.19 120.3,-12.19l169.04 0 0 -71.59c0,-18.28 -1.98,-34.5 -6.08,-48.71 -4.1,-14.21 -11.15,-26.91 -21.33,-38.1 -9.14,-12.16 -22.85,-20.79 -41.12,-25.86 -17.23,-6.12 -40.08,-9.14 -68.53,-9.14 -43.67,0 -86.81,5.07 -129.44,15.22 -41.58,9.14 -78.13,19.78 -109.64,31.98l-36.55 -156.85c25.39,-11.18 55.29,-21.33 89.86,-30.47 34.53,-9.13 71.08,-16.76 109.65,-22.84 39.57,-6.08 78.13,-9.14 115.72,-9.14 63.97,0 116.77,6.59 158.4,19.79 42.63,12.19 75.65,30.97 98.96,56.37 24.39,24.35 41.12,54.32 50.26,89.83 10.18,35.54 15.25,75.65 15.25,120.33l0 335.02c0,31.48 1.04,64.46 3.02,99 2.01,33.49 3.53,62.92 4.57,88.31l-162.93 0 -45.68 -100.51 -4.57 0c-29.43,36.55 -65.01,65.48 -106.63,86.81 -40.61,20.29 -84.79,30.47 -132.49,30.47zm79.22 -150.77c28.45,0 56.8,-7.62 85.25,-22.84 29.43,-16.26 49.22,-37.05 59.4,-62.45l0 -102.02 -137.06 0c-13.21,0 -26.91,1.01 -41.12,3.02 -13.2,2.05 -25.87,6.12 -38.06,12.2 -11.15,6.07 -20.29,15.21 -27.41,27.41 -7.13,12.19 -10.65,28.42 -10.65,48.74 0,30.43 10.18,54.32 30.43,71.55 20.29,16.26 46.73,24.39 79.22,24.39z"/>
  <path fill="#FEFEFE" fill-rule="nonzero" d="M15234.52 5242.4l0 -543.66c0,-53.82 -0.58,-100.01 -1.55,-138.58 -1.04,-38.6 -2.09,-75.14 -3.02,-109.64l194.9 -6.12 18.28 129.47 4.57 0c29.42,-43.67 65.97,-78.71 109.64,-105.08 43.6,-26.4 96.45,-37.59 158.4,-33.53l0 201.02c-50.84,-6.07 -98.5,-3.52 -143.14,7.63 -44.76,11.15 -81.77,35.54 -111.2,73.1l0 525.39 -226.88 0z"/>
  <path fill="#FEFEFE" fill-rule="nonzero" d="M16324.23 5149.52l-3.06 0c-16.26,27.41 -42.63,52.77 -79.18,76.12 -35.5,22.34 -79.21,33.53 -130.98,33.53 -63.96,0 -119.82,-17.27 -167.53,-51.8 -46.73,-34.5 -83.27,-82.24 -109.64,-143.14 -26.34,-61.95 -39.57,-132.49 -39.57,-211.67 0,-83.28 13.23,-155.84 39.57,-217.79 27.41,-62.95 65.5,-112.2 114.21,-147.7 48.75,-35.55 105.08,-53.32 169.04,-53.32 42.67,0 83.32,9.14 121.85,27.42 38.56,17.26 73.56,43.67 105.07,79.17l1.52 0 16.76 -95.94 193.39 6.12c-1.04,33.49 -1.97,72.59 -3.02,117.23 -1.04,44.68 -1.54,89.36 -1.54,134.04l0 881.75 -226.89 0 0 -434.02zm-138.61 -67.02c36.55,0 67.49,-11.69 92.92,-35.04 25.4,-24.35 40.65,-50.76 45.69,-79.17l0 -293.91c-17.23,-21.33 -38.1,-37.59 -62.45,-48.74 -23.31,-11.16 -47.2,-16.77 -71.59,-16.77 -32.45,0 -61.37,10.18 -86.8,30.47 -24.36,20.29 -43.67,48.75 -57.85,85.3 -13.24,35.5 -19.82,77.16 -19.82,124.86 0,48.74 6.58,90.87 19.82,126.41 14.18,34.5 33.03,60.91 56.34,79.18 24.35,18.27 52.27,27.41 83.74,27.41z"/>
  <path fill="#FEFEFE" fill-rule="nonzero" d="M16994.09 5259.17c-65.93,0 -118.78,-14.75 -158.39,-44.18 -38.53,-29.42 -66.51,-69.53 -83.74,-120.29 -16.26,-51.81 -24.36,-110.69 -24.36,-176.67l0 -467.51 226.89 0 0 466c0,51.77 9.64,91.88 28.96,120.3 20.25,28.41 53.27,42.62 98.96,42.62 22.38,0 42.66,-3.52 60.94,-10.64 18.27,-8.13 35,-17.77 50.25,-28.93 15.22,-12.19 28.46,-24.39 39.58,-36.55l0 -552.8 226.92 0 0 539.1c0,48.71 0,93.89 0,135.51 1.04,41.62 2.59,80.73 4.57,117.27l-159.91 0 -47.19 -105.07 -6.12 0c-17.2,19.28 -39.1,38.56 -65.47,57.88 -25.4,18.27 -54.36,33.49 -86.81,45.68 -32.44,12.16 -67.48,18.28 -105.08,18.28z"/>
  <path fill="#FEFEFE" fill-rule="nonzero" d="M18007.87 5259.17c-89.4,0 -164.47,-15.76 -225.38,-47.23 -59.96,-32.49 -105.65,-79.18 -137.06,-140.09 -30.47,-60.94 -45.68,-133.53 -45.68,-217.78 0,-55.83 7.59,-108.64 22.84,-158.39 16.15,-50.76 40.54,-95.94 73.1,-135.52 32.45,-39.6 73.1,-70.58 121.81,-92.92 48.74,-22.34 106.05,-33.49 172.09,-33.49 67.02,0 123.36,12.2 169.04,36.55 46.63,24.36 82.71,57.88 108.14,100.51 26.33,42.63 43.1,92.38 50.26,149.26 8.05,56.84 7.59,117.24 -1.55,181.2l-595.44 0 120.3 -89.83c-20.36,61.91 -24.36,113.71 -12.16,155.33 12.16,41.63 36.55,73.1 73.1,94.4 37.48,20.32 83.74,30.47 138.57,30.47 38.53,0 77.67,-3.56 117.27,-10.65 40.55,-8.13 75.55,-17.27 105.08,-27.41l24.36 156.84c-39.61,15.22 -84.33,26.91 -134.01,35.04 -49.78,9.14 -98.06,13.71 -144.68,13.71zm-286.32 -479.71l394.46 0c0.93,-4.07 1.51,-7.63 1.51,-10.68 0,-4.07 0,-7.59 0,-10.65 0,-31.48 -4.57,-59.9 -13.71,-85.3 -9.14,-25.36 -23.89,-45.68 -44.18,-60.9 -19.31,-15.22 -45.21,-22.84 -77.66,-22.84 -39.57,0 -72.13,11.69 -97.46,35.04 -24.35,23.34 -41.69,53.78 -51.76,91.37 -10.22,36.55 -11.73,75.62 -4.57,117.24l-106.63 -53.28z"/>
  <path fill="#FEFEFE" fill-rule="nonzero" d="M18662.7 5259.17c-48.71,0 -91.38,-10.18 -127.93,-30.47 -36.54,-20.29 -65.47,-48.24 -86.8,-83.75 -20.25,-35.54 -30.43,-75.65 -30.43,-120.33 0,-40.61 7.12,-75.11 21.29,-103.53 14.28,-29.46 34.07,-52.81 59.4,-70.08 26.47,-18.27 57.88,-31.48 94.43,-39.57 36.55,-8.13 76.69,-12.19 120.29,-12.19l169.04 0 0 -71.59c0,-18.28 -1.98,-34.5 -6.08,-48.71 -3.99,-14.21 -11.15,-26.91 -21.33,-38.1 -9.14,-12.16 -22.84,-20.79 -41.12,-25.86 -17.23,-6.12 -40.07,-9.14 -68.53,-9.14 -43.6,0 -86.8,5.07 -129.43,15.22 -41.59,9.14 -78.14,19.78 -109.65,31.98l-36.55 -156.85c25.4,-11.18 55.4,-21.33 89.86,-30.47 34.54,-9.13 71.09,-16.76 109.65,-22.84 39.57,-6.08 78.21,-9.14 115.73,-9.14 63.96,0 116.77,6.59 158.39,19.79 42.63,12.19 75.65,30.97 98.96,56.37 24.4,24.35 41.12,54.32 50.26,89.83 10.18,35.54 15.25,75.65 15.25,120.33l0 335.02c0,31.48 1.05,64.46 3.02,99 2.09,33.49 3.64,62.92 4.57,88.31l-162.92 0 -45.69 -100.51 -4.57 0c-29.42,36.55 -64.93,65.48 -106.62,86.81 -40.54,20.29 -84.72,30.47 -132.49,30.47zm79.21 -150.77c28.46,0 56.91,-7.62 85.26,-22.84 29.5,-16.26 49.32,-37.05 59.39,-62.45l0 -102.02 -137.06 0c-13.13,0 -26.84,1.01 -41.12,3.02 -13.13,2.05 -25.86,6.12 -38.06,12.2 -11.15,6.07 -20.29,15.21 -27.41,27.41 -7.05,12.19 -10.65,28.42 -10.65,48.74 0,30.43 10.18,54.32 30.44,71.55 20.36,16.26 46.73,24.39 79.21,24.39z"/>
  <path fill="#FEFEFE" fill-rule="nonzero" d="M19568.84 5259.17c-63.96,0 -120.33,-17.27 -169.04,-51.8 -47.7,-34.5 -85.3,-82.24 -112.71,-143.14 -26.37,-61.95 -39.61,-132.49 -39.61,-211.67 0,-83.28 13.71,-155.84 41.12,-217.79 27.41,-62.95 65.51,-112.2 114.22,-147.7 48.74,-35.55 105.08,-53.32 169.04,-53.32 42.66,0 81.77,8.13 117.27,24.36 36.55,15.25 65.47,35.54 86.81,60.94l3.06 0 0 -415.75 226.88 -6.12 0 913.73c0,19.32 0,44.18 0,74.65 0,29.43 0.58,58.35 1.55,86.8 1.04,28.42 2.08,51.77 3.02,70.04l-158.36 0 -50.25 -103.56 -3.06 0c-25.32,36.55 -57.31,66.01 -95.94,88.35 -37.52,21.29 -82.24,31.98 -134,31.98zm70.04 -176.67c37.59,0 68.53,-11.69 92.88,-35.04 25.43,-24.35 41.12,-50.76 47.24,-79.17l0 -293.91c-17.24,-21.33 -38.1,-37.59 -62.46,-48.74 -24.35,-11.16 -48.74,-16.77 -73.09,-16.77 -32.45,0 -61.41,10.18 -86.81,30.47 -24.35,20.29 -43.6,48.75 -57.88,85.3 -13.13,35.5 -19.79,77.16 -19.79,124.86 0,48.74 6.66,90.87 19.79,126.41 14.28,34.5 33.02,60.91 56.37,79.18 24.36,18.27 52.34,27.41 83.75,27.41z"/>
  <path fill="#FEFEFE" fill-rule="nonzero" d="M20386.41 5259.17c-48.71,0 -91.37,-10.18 -127.92,-30.47 -36.55,-20.29 -65.47,-48.24 -86.81,-83.75 -20.36,-35.54 -30.43,-75.65 -30.43,-120.33 0,-40.61 7.01,-75.11 21.3,-103.53 14.21,-29.46 33.99,-52.81 59.39,-70.08 26.37,-18.27 57.88,-31.48 94.43,-39.57 36.55,-8.13 76.62,-12.19 120.3,-12.19l169.04 0 0 -71.59c0,-18.28 -2.09,-34.5 -6.08,-48.71 -4.11,-14.21 -11.23,-26.91 -21.34,-38.1 -9.13,-12.16 -22.84,-20.79 -41.11,-25.86 -17.31,-6.12 -40.15,-9.14 -68.53,-9.14 -43.68,0 -86.81,5.07 -129.44,15.22 -41.69,9.14 -78.24,19.78 -109.64,31.98l-36.55 -156.85c25.32,-11.18 55.29,-21.33 89.86,-30.47 34.42,-9.13 70.97,-16.76 109.65,-22.84 39.57,-6.08 78.13,-9.14 115.72,-9.14 63.96,0 116.7,6.59 158.39,19.79 42.63,12.19 75.55,30.97 98.97,56.37 24.39,24.35 41.12,54.32 50.25,89.83 10.11,35.54 15.26,75.65 15.26,120.33l0 335.02c0,31.48 0.93,64.46 3.02,99 2.01,33.49 3.52,62.92 4.57,88.31l-162.93 0 -45.68 -100.51 -4.57 0c-29.54,36.55 -65.01,65.48 -106.63,86.81 -40.61,20.29 -84.79,30.47 -132.49,30.47zm79.21 -150.77c28.35,0 56.81,-7.62 85.26,-22.84 29.43,-16.26 49.21,-37.05 59.39,-62.45l0 -102.02 -137.06 0c-13.2,0 -26.9,1.01 -41.11,3.02 -13.21,2.05 -25.87,6.12 -38.06,12.2 -11.23,6.07 -20.36,15.21 -27.42,27.41 -7.15,12.19 -10.64,28.42 -10.64,48.74 0,30.43 10.07,54.32 30.43,71.55 20.29,16.26 46.66,24.39 79.21,24.39z"/>
  <path fill="#FEFEFE" fill-rule="nonzero" d="M21230.1 5259.17c-45.69,0 -92.42,-5.07 -140.12,-15.25 -47.77,-9.14 -87.84,-20.29 -120.29,-33.5l27.41 -153.82c18.27,6.12 40.07,12.7 65.47,19.82 26.37,6.08 54.25,11.15 83.78,15.22 29.39,4.06 57.85,6.08 85.26,6.08 39.61,0 68.53,-6.58 86.81,-19.79 19.24,-14.21 28.95,-32.48 28.95,-54.82 0,-18.28 -7.15,-33.49 -21.33,-45.69 -14.28,-12.19 -32.55,-23.34 -54.82,-33.49 -22.38,-10.18 -46.73,-20.32 -73.1,-30.47 -32.56,-12.19 -65.47,-27.41 -99,-45.68 -32.56,-19.29 -59.97,-44.18 -82.24,-74.61 -22.37,-30.47 -33.49,-70.08 -33.49,-118.79 0,-50.76 13.13,-93.93 39.61,-129.47 27.41,-35.5 64.9,-62.92 112.67,-82.23 47.7,-19.29 102.06,-28.93 162.96,-28.93 43.6,0 85.76,4.57 126.41,13.71 40.54,8.13 75.08,18.27 103.53,30.47l-25.86 152.28c-15.25,-5.08 -34.57,-10.65 -57.88,-16.77 -22.38,-6.08 -45.69,-10.65 -70.04,-13.7 -24.39,-4.07 -47.81,-6.08 -70.08,-6.08 -30.43,0 -55.4,6.08 -74.61,18.27 -18.27,12.2 -27.41,28.92 -27.41,50.26 0,16.26 6.08,30.47 18.27,42.62 13.13,11.19 30.47,21.34 51.77,30.47 21.33,9.14 44.17,18.78 68.53,28.93 33.53,12.19 67.49,27.91 102.06,47.23 35.5,18.28 64.89,43.13 88.31,74.61 23.31,31.48 35.04,72.09 35.04,121.84 0,50.76 -14.28,95.44 -42.67,134 -28.45,37.56 -68.02,66.52 -118.78,86.81 -49.79,20.29 -108.1,30.47 -175.12,30.47z"/>
 </g>
</svg>
