<svg xmlns="http://www.w3.org/2000/svg" shape-rendering="geometricPrecision" text-rendering="geometricPrecision" image-rendering="optimizeQuality" fill-rule="evenodd" clip-rule="evenodd" viewBox="0 0 22000 6000" preserveAspectRatio="xMidYMid meet">
 <g id="Camada_x0020_1">
  <metadata id="CorelCorpID_0Corel-Layer"/>
  <g id="_2287552485200">
   <path fill="#CC3333" fill-rule="nonzero" d="M2055.28 1190.36c0,242.23 -196.38,438.59 -438.61,438.59 -242.23,0 -438.58,-196.36 -438.58,-438.59 0,-242.23 196.35,-438.61 438.58,-438.61 242.23,0 438.61,196.38 438.61,438.61z"/>
   <path fill="#91D050" fill-rule="nonzero" d="M1224.25 1790.17c0,-63.55 51.51,-115.05 115.03,-115.05l554.79 0c63.52,0 115.04,51.5 115.04,115.05l0 554.77c0,63.52 -51.52,115.02 -115.04,115.02l-554.79 0c-63.52,0 -115.03,-51.5 -115.03,-115.02l0 -554.77z"/>
   <path fill="#91D050" fill-rule="nonzero" d="M1224.25 3590.71c0,-63.53 51.51,-115.03 115.05,-115.03l554.77 0c63.52,0 115.04,51.5 115.04,115.03l0 554.79c0,63.52 -51.52,115.02 -115.04,115.02l-554.77 0c-63.54,0 -115.05,-51.5 -115.05,-115.02l0 -554.79z"/>
   <path fill="#91D050" fill-rule="nonzero" d="M1224.25 2690.44c0,-63.53 51.51,-115.03 115.05,-115.03l554.77 0c63.52,0 115.04,51.5 115.04,115.03l0 554.78c0,63.52 -51.52,115.02 -115.04,115.02l-554.77 0c-63.54,0 -115.05,-51.5 -115.05,-115.02l0 -554.78z"/>
   <path fill="#91D050" fill-rule="nonzero" d="M2124.52 1805.55c0,-63.55 51.52,-115.05 115.05,-115.05l554.78 0c63.52,0 115.03,51.5 115.03,115.05l0 554.77c0,63.54 -51.51,115.04 -115.03,115.04l-554.78 0c-63.53,0 -115.05,-51.5 -115.05,-115.04l0 -554.77z"/>
   <path fill="#91D050" fill-rule="nonzero" d="M2124.53 912.98c0,-63.55 51.5,-115.05 115.03,-115.05l554.78 0c63.52,0 115.03,51.5 115.03,115.05l0 554.77c0,63.52 -51.51,115.02 -115.03,115.02l-554.78 0c-63.53,0 -115.03,-51.5 -115.03,-115.02l0 -554.77z"/>
   <path fill="#91D050" fill-rule="nonzero" d="M3024.79 912.98c0,-63.55 51.5,-115.05 115.05,-115.05l554.76 0c63.55,0 115.05,51.5 115.05,115.05l0 554.77c0,63.52 -51.5,115.02 -115.05,115.02l-554.76 0c-63.55,0 -115.05,-51.5 -115.05,-115.02l0 -554.77z"/>
   <path fill="#91D050" fill-rule="nonzero" d="M2124.53 3590.71c0,-63.53 51.5,-115.03 115.03,-115.03l554.78 0c63.52,0 115.03,51.5 115.03,115.03l0 554.79c0,63.52 -51.51,115.02 -115.03,115.02l-554.78 0c-63.53,0 -115.03,-51.5 -115.03,-115.02l0 -554.79z"/>
   <path fill="#91D050" fill-rule="nonzero" d="M2124.53 2690.44c0,-63.53 51.5,-115.03 115.03,-115.03l554.78 0c63.52,0 115.03,51.5 115.03,115.03l0 554.78c0,63.52 -51.51,115.02 -115.03,115.02l-554.78 0c-63.53,0 -115.03,-51.5 -115.03,-115.02l0 -554.78z"/>
   <path fill="#91D050" fill-rule="nonzero" d="M3024.79 2690.44c0,-63.53 51.5,-115.03 115.05,-115.03l554.76 0c63.55,0 115.05,51.5 115.05,115.03l0 554.78c0,63.52 -51.5,115.02 -115.05,115.02l-554.76 0c-63.55,0 -115.05,-51.5 -115.05,-115.02l0 -554.78z"/>
  </g>
 </g>
</svg>
